<?xml version="1.0" encoding="iso-8859-1"?>
<!-- Uploaded to: SVG Repo, www.svgrepo.com, Generator: SVG Repo Mixer Tools -->
<svg fill="#000000" height="800px" width="800px" version="1.1" id="Layer_1" xmlns="http://www.w3.org/2000/svg" xmlns:xlink="http://www.w3.org/1999/xlink" 
	 viewBox="0 0 512.001 512.001" xml:space="preserve">
<g>
	<g>
		<path d="M489.558,172.932l-25.075-5.015V23.165c0-10.153-8.26-18.413-18.413-18.413h-4.916c-5.544,0-10.758,2.535-14.305,6.954
			c-27.916,34.771-94.447,62.095-192.402,79.021c-82.217,14.206-165.661,17.522-197.72,18.288
			c-15.266,0.365-27.224,12.622-27.224,27.906v190.64c0,15.284,11.958,27.542,27.224,27.907c7.406,0.177,17.558,0.491,29.797,1.042
			v43.843c-0.884,2.151-1.597,4.407-2.117,6.751L46.112,489.43H8.91c-4.92,0-8.91,3.989-8.91,8.909s3.989,8.909,8.91,8.909h190.07
			c4.92,0,8.909-3.989,8.909-8.909s-3.989-8.909-8.909-8.909h-37.203l-18.294-82.326c-0.52-2.345-1.233-4.601-2.118-6.753
			c0-0.006,0.001-0.011,0.001-0.017V361.66c29.171,2.72,61.218,6.589,93.083,12.096c97.955,16.926,164.485,44.251,192.4,79.02
			c3.548,4.42,8.762,6.954,14.306,6.954h4.916c10.153,0,18.413-8.26,18.413-18.413v-144.75l25.075-5.015
			c13.004-2.6,22.443-14.113,22.443-27.374v-63.872C512,187.046,502.562,175.532,489.558,172.932z M143.523,489.43H64.366
			l17.435-78.461c2.324-10.459,11.429-17.762,22.143-17.762s19.82,7.303,22.143,17.762L143.523,489.43z M84.343,380.382v-22.968
			c11.901,0.67,25.098,1.547,39.202,2.692v20.276c-5.828-3.202-12.516-4.994-19.601-4.994S90.171,377.181,84.343,380.382z
			 M494.181,264.177c0,4.797-3.414,8.961-8.117,9.9l-21.581,4.317v-46.154c0-4.92-3.989-8.909-8.91-8.909
			c-4.92,0-8.909,3.989-8.909,8.909v209.078c0,0.328-0.266,0.594-0.594,0.594h-4.916c-0.164,0-0.355-0.222-0.411-0.291
			c-31.114-38.754-99.501-67.495-203.262-85.424c-83.386-14.409-167.874-17.768-200.329-18.544c-5.512-0.132-9.83-4.564-9.83-10.093
			V136.922c0-5.527,4.318-9.961,9.83-10.093c32.454-0.776,116.943-4.135,200.329-18.544c103.76-17.928,172.147-46.67,203.263-85.424
			c0.055-0.068,0.246-0.29,0.41-0.29h4.916c0.328,0,0.594,0.266,0.594,0.594v171.059c0,4.92,3.989,8.909,8.909,8.909
			c4.92,0,8.91-3.989,8.91-8.909v-8.135l21.581,4.317c4.703,0.941,8.117,5.105,8.117,9.9V264.177z"/>
	</g>
</g>
<g>
	<g>
		<path d="M132.455,166.312H56.427c-4.92,0-8.91,3.989-8.91,8.909c0,4.92,3.989,8.91,8.91,8.91h76.028
			c4.92,0,8.909-3.989,8.909-8.91C141.364,170.301,137.375,166.312,132.455,166.312z"/>
	</g>
</g>
<g>
	<g>
		<path d="M132.455,280.353H56.427c-4.92,0-8.91,3.989-8.91,8.91c0,4.92,3.989,8.909,8.91,8.909h76.028
			c4.92,0,8.909-3.989,8.909-8.909C141.364,284.342,137.375,280.353,132.455,280.353z"/>
	</g>
</g>
<g>
	<g>
		<path d="M132.455,223.332h-19.007c-4.92,0-8.91,3.989-8.91,8.91c0,4.92,3.989,8.909,8.91,8.909h19.007
			c4.92,0,8.909-3.989,8.909-8.909C141.364,227.321,137.375,223.332,132.455,223.332z"/>
	</g>
</g>
<g>
	<g>
		<path d="M75.43,223.332H56.427c-4.92,0-8.91,3.989-8.91,8.91c0,4.92,3.989,8.909,8.91,8.909H75.43c4.92,0,8.91-3.989,8.91-8.909
			C84.34,227.321,80.351,223.332,75.43,223.332z"/>
	</g>
</g>
<g>
	<g>
		<path d="M103.992,413.402h-0.095c-4.92,0-8.862,3.989-8.862,8.91s4.037,8.909,8.957,8.909c4.92,0,8.91-3.989,8.91-8.909
			S108.912,413.402,103.992,413.402z"/>
	</g>
</g>
</svg>