<?xml version="1.0" encoding="iso-8859-1"?>
<!-- Uploaded to: SVG Repo, www.svgrepo.com, Generator: SVG Repo Mixer Tools -->
<svg fill="#000000" height="800px" width="800px" version="1.1" id="Layer_1" xmlns="http://www.w3.org/2000/svg" xmlns:xlink="http://www.w3.org/1999/xlink" 
	 viewBox="0 0 512 512" xml:space="preserve">
<g>
	<g>
		<path d="M397.557,411.323l-16.331-16.33c-3.355-3.355-8.794-3.355-12.148,0c-3.355,3.355-3.355,8.795,0,12.148l9.55,9.55
			c-35.109,26.807-78.295,41.474-122.628,41.474c-111.474,0-202.166-90.692-202.166-202.166c0-44.333,14.667-87.52,41.473-122.628
			l97.122,97.121v29.269l-16.154-19.385c-5.196-6.234-12.83-9.559-20.927-9.129c-8.104,0.433-15.333,4.554-19.834,11.306
			c-5.386,8.079-5.739,18.335-0.922,26.765l52.301,91.527c11.292,19.758,32.44,32.031,55.195,32.031h59.728
			c14.114,0,27.679-5.59,37.743-15.253l3.565,3.565c3.355,3.355,8.794,3.355,12.148,0c3.355-3.355,3.355-8.794,0-12.148
			L100.677,114.443c-1.702-1.702-4.05-2.605-6.446-2.508c-2.405,0.104-4.656,1.213-6.205,3.056
			C54.897,154.414,36.653,204.492,36.653,256c0,120.948,98.399,219.347,219.347,219.347c51.508,0,101.586-18.244,141.01-51.373
			c1.843-1.549,2.952-3.799,3.056-6.205C400.17,415.364,399.259,413.025,397.557,411.323z M203.945,291.569
			c3.401-1.231,5.666-4.461,5.666-8.078v-35.816l117.821,117.821c-6.863,6.543-15.906,10.2-25.616,10.2h-59.728
			c-16.605,0-32.038-8.956-40.277-23.374l-52.301-91.525c-1.567-2.744-1.452-6.082,0.301-8.711c1.465-2.197,3.818-3.538,6.454-3.679
			c2.642-0.136,5.119,0.942,6.811,2.971l31.344,37.613C196.736,291.769,200.544,292.798,203.945,291.569z"/>
	</g>
</g>
<g>
	<g>
		<path d="M437.02,74.98C388.668,26.629,324.38,0,256,0S123.332,26.629,74.98,74.98C26.629,123.332,0,187.62,0,256
			s26.629,132.668,74.98,181.02C123.332,485.371,187.62,512,256,512s132.668-26.629,181.02-74.98
			C485.371,388.668,512,324.38,512,256S485.371,123.332,437.02,74.98z M256,494.819C124.315,494.819,17.181,387.685,17.181,256
			S124.315,17.181,256,17.181S494.819,124.315,494.819,256S387.685,494.819,256,494.819z"/>
	</g>
</g>
<g>
	<g>
		<path d="M256,36.653c-51.508,0-101.586,18.244-141.01,51.373c-1.843,1.549-2.952,3.799-3.056,6.205
			c-0.104,2.405,0.806,4.744,2.508,6.446l25.505,25.505c3.355,3.355,8.794,3.355,12.148,0c3.355-3.355,3.355-8.794,0-12.148
			l-18.724-18.726C168.481,68.501,211.667,53.834,256,53.834c111.474,0,202.166,90.692,202.166,202.166
			c0,44.333-14.667,87.52-41.473,122.628l-60.469-60.468v-143.65c0-13.614-9.656-25.452-22.459-27.536
			c-5.208-0.845-10.453-0.174-15.153,1.856c-2.739-10.324-11.076-18.486-21.502-20.182c-6.426-1.045-12.909,0.223-18.351,3.499
			c-4.004-6.602-10.581-11.406-18.303-12.663c-7.89-1.281-15.865,0.921-21.89,6.044c-2.209,1.878-4.073,4.073-5.547,6.489
			c-5.395-3.179-11.791-4.398-18.131-3.369c-12.254,1.994-21.6,12.925-22.384,25.794l-14.451-14.451
			c-3.355-3.355-8.794-3.355-12.148,0c-3.355,3.355-3.355,8.794,0,12.148l245.416,245.416c1.614,1.615,3.8,2.516,6.074,2.516
			c0.124,0,0.249-0.002,0.372-0.008c2.405-0.104,4.656-1.213,6.205-3.056c33.129-39.424,51.373-89.502,51.373-141.01
			C475.347,135.052,376.948,36.653,256,36.653z M229.083,191.02l-19.472-19.472v-15.363c0-5.198,3.531-9.844,8.039-10.577
			c2.947-0.48,5.787,0.292,7.998,2.174c2.183,1.857,3.435,4.561,3.435,7.422V191.02z M265.736,155.204v72.469l-19.472-19.472
			v-52.997v-9.163c0-2.861,1.252-5.566,3.435-7.422c2.212-1.882,5.052-2.654,8-2.174c4.507,0.733,8.037,5.379,8.037,10.577V155.204z
			 M339.042,300.979l-56.125-56.125v-89.65c0-2.861,1.252-5.566,3.435-7.422c2.212-1.882,5.052-2.653,8-2.174
			c4.507,0.733,8.037,5.379,8.037,10.577v17.346v73.306c0,4.744,3.846,8.591,8.591,8.591s8.591-3.846,8.591-8.591V173.53
			c0-2.861,1.252-5.566,3.435-7.422c2.212-1.882,5.051-2.653,8-2.174c4.507,0.733,8.037,5.379,8.037,10.577V300.979z"/>
	</g>
</g>
</svg>