<?xml version="1.0" encoding="iso-8859-1"?>
<!-- Uploaded to: SVG Repo, www.svgrepo.com, Generator: SVG Repo Mixer Tools -->
<svg fill="#000000" height="800px" width="800px" version="1.1" id="Layer_1" xmlns="http://www.w3.org/2000/svg" xmlns:xlink="http://www.w3.org/1999/xlink" 
	 viewBox="0 0 512 512" xml:space="preserve">
<g>
	<g>
		<path d="M384.267,0H127.733c-4.427,0-8.017,3.589-8.017,8.017v495.967c0,4.427,3.589,8.017,8.017,8.017h256.534
			c4.427,0,8.017-3.589,8.017-8.017V8.017C392.284,3.589,388.695,0,384.267,0z M376.251,495.967H135.749V16.033h240.501V495.967z"/>
	</g>
</g>
<g>
	<g>
		<path d="M350.063,256.534h-0.534v-9.086c0-13.851-11.268-25.119-25.119-25.119c-13.851,0-25.119,11.268-25.119,25.119v9.086
			h-0.534c-4.427,0-8.017,3.589-8.017,8.017v17.102c0,18.566,15.104,33.67,33.67,33.67s33.67-15.105,33.67-33.67v-17.102
			C358.079,260.124,354.49,256.534,350.063,256.534z M315.324,247.449c0-5.01,4.076-9.086,9.086-9.086
			c5.01,0,9.086,4.076,9.086,9.086v9.086h-18.171V247.449z M342.046,281.653c0,9.725-7.912,17.637-17.637,17.637
			s-17.637-7.912-17.637-17.637v-9.086h9.62v9.086c0,4.427,3.589,8.017,8.017,8.017s8.017-3.589,8.017-8.017v-9.086h9.62V281.653z"
			/>
	</g>
</g>
<g>
	<g>
		<path d="M238.898,34.205h-76.96c-4.427,0-8.017,3.589-8.017,8.017v162.472c0,4.427,3.589,8.017,8.017,8.017h76.96
			c4.427,0,8.017-3.589,8.017-8.017V42.221C246.914,37.794,243.325,34.205,238.898,34.205z M230.881,196.676h-60.927V50.238h60.927
			V196.676z"/>
	</g>
</g>
<g>
	<g>
		<path d="M350.063,34.205h-76.96c-4.427,0-8.017,3.589-8.017,8.017v162.472c0,4.427,3.589,8.017,8.017,8.017h76.96
			c4.427,0,8.017-3.589,8.017-8.017V42.221C358.079,37.794,354.49,34.205,350.063,34.205z M342.046,196.676h-60.927V50.238h60.927
			V196.676z"/>
	</g>
</g>
<g>
	<g>
		<path d="M238.898,359.148h-76.96c-4.427,0-8.017,3.589-8.017,8.017v102.614c0,4.427,3.589,8.017,8.017,8.017h76.96
			c4.427,0,8.017-3.589,8.017-8.017V367.165C246.914,362.738,243.325,359.148,238.898,359.148z M230.881,461.762h-60.927v-86.58
			h60.927V461.762z"/>
	</g>
</g>
<g>
	<g>
		<path d="M350.063,392.284c4.427,0,8.017-3.589,8.017-8.017v-17.102c0-4.427-3.589-8.017-8.017-8.017h-76.96
			c-4.427,0-8.017,3.589-8.017,8.017v102.614c0,4.427,3.589,8.017,8.017,8.017h76.96c4.427,0,8.017-3.589,8.017-8.017v-51.307
			c0-4.427-3.589-8.017-8.017-8.017s-8.017,3.589-8.017,8.017v43.29h-60.927v-86.58h60.927v9.086
			C342.046,388.695,345.635,392.284,350.063,392.284z"/>
	</g>
</g>
<g>
	<g>
		<path d="M238.898,230.881h-76.96c-4.427,0-8.017,3.589-8.017,8.017v94.063c0,4.427,3.589,8.017,8.017,8.017h76.96
			c4.427,0,8.017-3.589,8.017-8.017v-94.063C246.914,234.47,243.325,230.881,238.898,230.881z M230.881,324.944h-60.927v-78.029
			h60.927V324.944z"/>
	</g>
</g>
<g>
	<g>
		<path d="M350.063,324.944h-68.944v-86.046c0-4.427-3.589-8.017-8.017-8.017s-8.017,3.589-8.017,8.017v94.063
			c0,4.427,3.589,8.017,8.017,8.017h76.96c4.427,0,8.017-3.589,8.017-8.017S354.49,324.944,350.063,324.944z"/>
	</g>
</g>
</svg>