<?xml version="1.0" encoding="iso-8859-1"?>
<!-- Uploaded to: SVG Repo, www.svgrepo.com, Generator: SVG Repo Mixer Tools -->
<svg fill="#000000" height="800px" width="800px" version="1.1" id="Layer_1" xmlns="http://www.w3.org/2000/svg" xmlns:xlink="http://www.w3.org/1999/xlink" 
	 viewBox="0 0 512 512" xml:space="preserve">
<g>
	<g>
		<path d="M307.307,169.955c4.427,0,8.017-3.589,8.017-8.017V8.017c0-4.427-3.589-8.017-8.017-8.017H50.772
			c-4.427,0-8.017,3.589-8.017,8.017v495.967c0,4.427,3.589,8.017,8.017,8.017h256.534c4.427,0,8.017-3.589,8.017-8.017V350.065
			c0-4.427-3.589-8.017-8.017-8.017s-8.017,3.589-8.017,8.017v145.902H58.789V16.033H299.29v145.905
			C299.29,166.366,302.879,169.955,307.307,169.955z"/>
	</g>
</g>
<g>
	<g>
		<path d="M466.645,250.09l-102.614-94.063c-2.344-2.148-5.735-2.71-8.645-1.428c-2.911,1.281-4.789,4.159-4.789,7.338v26.188
			H247.449c-9.136,0-16.568,7.432-16.568,16.568v102.614c0,9.136,7.432,16.568,16.568,16.568h103.148v26.188
			c0,3.179,1.878,6.057,4.789,7.338c1.038,0.456,2.136,0.679,3.227,0.679c1.968,0,3.911-0.725,5.418-2.107l102.614-94.063
			c1.657-1.519,2.6-3.662,2.6-5.91C469.244,253.752,468.301,251.609,466.645,250.09z M366.63,331.839v-15.981
			c0-4.427-3.589-8.017-8.017-8.017H247.449c-0.295,0-0.534-0.239-0.534-0.534V204.693c0-0.295,0.239-0.534,0.534-0.534h111.165
			c4.427,0,8.017-3.589,8.017-8.017v-15.981L449.364,256L366.63,331.839z"/>
	</g>
</g>
<g>
	<g>
		<path d="M273.102,34.205h-17.1c-4.427,0-8.017,3.589-8.017,8.017c0,4.427,3.589,8.017,8.017,8.017h9.083v111.699
			c0,4.427,3.589,8.017,8.017,8.017s8.017-3.589,8.017-8.017V42.221C281.119,37.794,277.53,34.205,273.102,34.205z"/>
	</g>
</g>
<g>
	<g>
		<path d="M221.791,34.205H84.977c-4.427,0-8.017,3.589-8.017,8.017v427.557c0,4.427,3.589,8.017,8.017,8.017h17.1
			c4.427,0,8.017-3.589,8.017-8.017c0-4.427-3.589-8.017-8.017-8.017h-9.083V50.238h128.797c4.427,0,8.017-3.589,8.017-8.017
			C229.808,37.794,226.218,34.205,221.791,34.205z"/>
	</g>
</g>
<g>
	<g>
		<path d="M273.102,342.047c-4.427,0-8.017,3.589-8.017,8.017v111.698H136.288c-4.427,0-8.017,3.589-8.017,8.017
			c0,4.427,3.589,8.017,8.017,8.017h136.814c4.427,0,8.017-3.589,8.017-8.017V350.064
			C281.119,345.636,277.53,342.047,273.102,342.047z"/>
	</g>
</g>
</svg>