<?xml version="1.0" encoding="iso-8859-1"?>
<!-- Uploaded to: SVG Repo, www.svgrepo.com, Generator: SVG Repo Mixer Tools -->
<svg fill="#000000" height="800px" width="800px" version="1.1" id="Layer_1" xmlns="http://www.w3.org/2000/svg" xmlns:xlink="http://www.w3.org/1999/xlink" 
	 viewBox="0 0 512 512" xml:space="preserve">
<g>
	<g>
		<path d="M418.472,427.557h-2.493l-21.233-268.943c-1.722-21.812-20.211-38.898-42.09-38.898H159.343
			c-21.88,0-40.369,17.086-42.09,38.898L96.021,427.557h-2.493c-13.851,0-25.119,11.268-25.119,25.119v17.102
			c0,13.851,11.268,25.119,25.119,25.119h324.944c13.851,0,25.119-11.268,25.119-25.119v-17.102
			C443.591,438.826,432.323,427.557,418.472,427.557z M427.557,469.779c0,5.01-4.076,9.086-9.086,9.086H93.528
			c-5.01,0-9.086-4.076-9.086-9.086v-17.102c0-5.01,4.076-9.086,9.086-9.086h256.538c4.427,0,8.017-3.589,8.017-8.017
			c0-4.427-3.589-8.017-8.017-8.017H112.103l21.133-267.681c1.069-13.529,12.536-24.127,26.107-24.127h193.314
			c13.572,0,25.039,10.598,26.107,24.127l21.133,267.681h-15.633c-4.427,0-8.017,3.589-8.017,8.017c0,4.427,3.589,8.017,8.017,8.017
			h34.208c5.01,0,9.086,4.076,9.086,9.086V469.779z"/>
	</g>
</g>
<g>
	<g>
		<path d="M76.426,265.086H8.017c-4.427,0-8.017,3.589-8.017,8.017s3.589,8.017,8.017,8.017h68.409c4.427,0,8.017-3.589,8.017-8.017
			S80.853,265.086,76.426,265.086z"/>
	</g>
</g>
<g>
	<g>
		<path d="M503.983,265.086h-68.409c-4.427,0-8.017,3.589-8.017,8.017s3.589,8.017,8.017,8.017h68.409
			c4.427,0,8.017-3.589,8.017-8.017S508.411,265.086,503.983,265.086z"/>
	</g>
</g>
<g>
	<g>
		<path d="M256,17.102c-4.427,0-8.017,3.589-8.017,8.017v68.409c0,4.427,3.589,8.017,8.017,8.017s8.017-3.589,8.017-8.017V25.119
			C264.017,20.692,260.427,17.102,256,17.102z"/>
	</g>
</g>
<g>
	<g>
		<path d="M107.746,113.512L86.317,92.083c-3.13-3.131-8.206-3.131-11.337,0c-3.131,3.131-3.131,8.206,0,11.337l21.428,21.429
			c1.565,1.565,3.617,2.347,5.668,2.347s4.103-0.782,5.668-2.347C110.876,121.718,110.876,116.642,107.746,113.512z"/>
	</g>
</g>
<g>
	<g>
		<path d="M437.019,92.083c-3.131-3.131-8.207-3.131-11.337,0l-21.43,21.43c-3.131,3.131-3.131,8.206,0,11.337
			c1.565,1.566,3.617,2.348,5.668,2.348s4.104-0.782,5.668-2.348l21.43-21.43C440.15,100.289,440.15,95.214,437.019,92.083z"/>
	</g>
</g>
<g>
	<g>
		<path d="M83.837,344.415c-1.693-4.091-6.386-6.032-10.474-4.339l-49.537,20.52c-4.091,1.694-6.033,6.383-4.339,10.474
			c1.278,3.088,4.264,4.951,7.41,4.951c1.023,0,2.062-0.197,3.065-0.611l49.537-20.518
			C83.589,353.196,85.531,348.505,83.837,344.415z"/>
	</g>
</g>
<g>
	<g>
		<path d="M451.527,192.112c-1.694-4.091-6.385-6.032-10.474-4.339l-17.098,7.081c-4.09,1.695-6.033,6.385-4.339,10.475
			c1.278,3.088,4.264,4.951,7.41,4.951c1.023,0,2.062-0.197,3.065-0.612l17.098-7.081
			C451.279,200.893,453.222,196.203,451.527,192.112z"/>
	</g>
</g>
<g>
	<g>
		<path d="M492.513,175.136c-1.694-4.091-6.386-6.034-10.474-4.339l-15.327,6.348c-4.091,1.694-6.033,6.385-4.339,10.475
			c1.278,3.087,4.264,4.95,7.41,4.95c1.023,0,2.062-0.198,3.065-0.612l15.327-6.348
			C492.265,183.916,494.207,179.227,492.513,175.136z"/>
	</g>
</g>
<g>
	<g>
		<path d="M189.006,90.416l-20.499-49.488c-1.694-4.091-6.383-6.034-10.474-4.339c-4.091,1.694-6.033,6.383-4.339,10.474
			l20.499,49.488c1.278,3.088,4.264,4.951,7.41,4.951c1.023,0,2.062-0.197,3.065-0.612C188.758,99.195,190.7,94.506,189.006,90.416z
			"/>
	</g>
</g>
<g>
	<g>
		<path d="M45.298,177.149l-15.336-6.352c-4.093-1.694-8.78,0.248-10.474,4.34c-1.694,4.09,0.248,8.78,4.339,10.473l15.336,6.352
			c1.004,0.416,2.043,0.612,3.065,0.612c3.146,0,6.131-1.864,7.41-4.951C51.33,183.532,49.388,178.843,45.298,177.149z"/>
	</g>
</g>
<g>
	<g>
		<path d="M88.044,194.856l-17.079-7.074c-4.093-1.693-8.78,0.248-10.474,4.339c-1.694,4.09,0.249,8.779,4.339,10.474l17.079,7.074
			c1.004,0.416,2.043,0.612,3.065,0.612c3.146,0,6.131-1.864,7.41-4.951C94.077,201.24,92.134,196.55,88.044,194.856z"/>
	</g>
</g>
<g>
	<g>
		<path d="M488.174,360.596l-49.566-20.531c-4.092-1.694-8.78,0.248-10.474,4.34c-1.694,4.091,0.248,8.78,4.339,10.474
			l49.566,20.531c1.004,0.416,2.043,0.611,3.065,0.611c3.146,0,6.131-1.863,7.41-4.951
			C494.207,366.979,492.265,362.289,488.174,360.596z"/>
	</g>
</g>
<g>
	<g>
		<path d="M353.966,36.588c-4.092-1.693-8.78,0.248-10.474,4.34l-20.516,49.531c-1.694,4.091,0.249,8.78,4.339,10.475
			c1.004,0.416,2.043,0.611,3.065,0.611c3.146,0,6.131-1.863,7.41-4.951l20.516-49.531
			C359.999,42.973,358.057,38.284,353.966,36.588z"/>
	</g>
</g>
<g>
	<g>
		<path d="M374.15,332.328l-8.101-102.611c-0.348-4.415-4.209-7.71-8.623-7.361s-7.709,4.209-7.36,8.623l8.101,102.612
			c0.331,4.2,3.842,7.386,7.983,7.386c0.212,0,0.425-0.009,0.64-0.026C371.203,340.602,374.499,336.741,374.15,332.328z"/>
	</g>
</g>
<g>
	<g>
		<path d="M363.348,195.511l-1.35-17.099c-0.348-4.413-4.205-7.708-8.623-7.361c-4.413,0.348-7.709,4.209-7.36,8.622l1.35,17.099
			c0.331,4.2,3.842,7.386,7.982,7.386c0.213,0.001,0.427-0.007,0.64-0.023C360.401,203.786,363.696,199.925,363.348,195.511z"/>
	</g>
</g>
</svg>