<?xml version="1.0" encoding="iso-8859-1"?>
<!-- Uploaded to: SVG Repo, www.svgrepo.com, Generator: SVG Repo Mixer Tools -->
<svg fill="#000000" height="800px" width="800px" version="1.1" id="Layer_1" xmlns="http://www.w3.org/2000/svg" xmlns:xlink="http://www.w3.org/1999/xlink" 
	 viewBox="0 0 512 512" xml:space="preserve">
<g>
	<g>
		<path d="M508.392,438.847L278.167,46.948c-4.673-7.955-12.96-12.706-22.167-12.706c-9.207,0-17.493,4.75-22.166,12.706
			L3.607,438.847c-4.758,8.099-4.811,17.8-0.146,25.953c4.644,8.114,12.985,12.958,22.313,12.958h460.452
			c9.328,0,17.669-4.844,22.313-12.958C513.205,456.646,513.15,446.944,508.392,438.847z M494.625,456.836
			c-0.842,1.469-3.345,4.89-8.4,4.89H25.774c-5.055,0-7.558-3.42-8.4-4.89c-1.774-3.1-1.754-6.791,0.056-9.87L247.655,55.068
			c2.542-4.327,6.683-4.795,8.344-4.795c1.662,0,5.802,0.467,8.344,4.795l230.226,391.897
			C496.38,450.046,496.4,453.735,494.625,456.836z"/>
	</g>
</g>
<g>
	<g>
		<path d="M303.844,158.171l-6.719-11.437c-2.242-3.817-7.155-5.092-10.971-2.851c-3.816,2.242-5.093,7.154-2.851,10.971
			l6.719,11.437c1.493,2.541,4.169,3.956,6.919,3.956c1.38,0,2.778-0.356,4.053-1.105C304.81,166.9,306.086,161.988,303.844,158.171
			z"/>
	</g>
</g>
<g>
	<g>
		<path d="M280.004,117.59l-17.019-28.972c-0.349-0.622-0.786-1.202-1.302-1.72c-0.697-0.701-1.509-1.256-2.385-1.651
			c-1.06-0.48-2.18-0.71-3.289-0.71c-0.005,0-0.011,0-0.016,0c-1.121,0-2.255,0.235-3.325,0.726
			c-0.842,0.384-1.622,0.915-2.298,1.583c-0.54,0.532-0.994,1.131-1.355,1.775L47.596,431.482c-1.456,2.478-1.473,5.547-0.045,8.041
			c1.428,2.494,4.082,4.033,6.956,4.033h124.575c4.427,0,8.015-3.589,8.015-8.015c0-4.427-3.589-8.014-8.015-8.014H68.513
			L256.001,108.38l10.18,17.33c2.242,3.817,7.155,5.092,10.971,2.851C280.97,126.319,282.246,121.407,280.004,117.59z"/>
	</g>
</g>
<g>
	<g>
		<path d="M464.403,431.482L320.908,187.219c-2.243-3.817-7.155-5.094-10.971-2.851c-3.817,2.242-5.093,7.154-2.851,10.97
			l136.401,232.188H332.97c-4.427,0-8.015,3.589-8.015,8.015c0,4.427,3.589,8.015,8.015,8.015h124.522
			c2.874,0,5.528-1.539,6.956-4.033C465.876,437.029,465.859,433.96,464.403,431.482z"/>
	</g>
</g>
<g>
	<g>
		<path d="M317.93,319.786c-8.339-15.116-15.541-28.169-11.25-53.92c0.463-2.772-0.562-5.585-2.7-7.411
			c-2.137-1.825-5.075-2.399-7.742-1.51c-0.869,0.29-15.895,5.454-27.835,19.262c-2.145-13.657-4.364-32.965-4.364-54.406
			c0-3.145-1.839-6-4.703-7.299c-2.865-1.301-6.223-0.804-8.59,1.267c-0.731,0.639-18.102,15.964-35.589,42.197
			c-16.216,24.323-35.545,63.009-35.545,109.179c0,42.134,34.279,76.413,76.413,76.413c42.134,0,76.413-34.279,76.413-76.413
			C332.439,346.082,324.732,332.112,317.93,319.786z M297.012,411.433c0.796-3.235,1.228-6.612,1.228-10.09
			c0-12.072-5.471-20.084-12.396-30.228c-1.894-2.773-3.852-5.642-5.958-8.941c-2.382-3.731-7.339-4.825-11.069-2.443
			c-3.732,2.382-4.825,7.338-2.443,11.069c2.239,3.506,4.359,6.613,6.231,9.353c6.66,9.755,9.604,14.357,9.604,21.19
			c0,13.986-11.023,25.446-24.838,26.149c-0.449,0.01-0.895,0.034-1.346,0.034c-0.451,0-0.897-0.025-1.345-0.034
			c-13.815-0.703-24.838-12.163-24.838-26.149c0-38.048,30.699-61.763,30.993-61.985c3.541-2.656,4.259-7.68,1.603-11.221
			c-2.656-3.541-7.679-4.259-11.221-1.603c-1.527,1.146-37.405,28.585-37.405,74.81c0,3.478,0.431,6.855,1.228,10.09
			c-11.917-11.037-19.396-26.803-19.396-44.288c0-58.196,33.801-104.603,52.901-126.178c1.861,33.794,7.95,58.509,8.255,59.725
			c0.865,3.457,3.907,5.928,7.468,6.065c3.536,0.142,6.784-2.094,7.912-5.475c3.574-10.722,10.847-18.002,17.233-22.603
			c-0.34,21.983,7.456,36.116,14.482,48.85c6.435,11.664,12.513,22.68,12.513,39.615
			C316.408,384.631,308.93,400.397,297.012,411.433z"/>
	</g>
</g>
</svg>