<?xml version="1.0" encoding="iso-8859-1"?>
<!-- Uploaded to: SVG Repo, www.svgrepo.com, Generator: SVG Repo Mixer Tools -->
<svg fill="#000000" height="800px" width="800px" version="1.1" id="Layer_1" xmlns="http://www.w3.org/2000/svg" xmlns:xlink="http://www.w3.org/1999/xlink" 
	 viewBox="0 0 512 512" xml:space="preserve">
<g>
	<g>
		<path d="M475.919,96.215H328.734V68.152c0-19.895-16.186-36.081-36.081-36.081h-73.307c-19.895,0-36.081,16.186-36.081,36.081
			v28.063H36.081C16.186,96.215,0,112.401,0,132.295v311.553c0,19.895,16.186,36.081,36.081,36.081h439.839
			c19.895,0,36.081-16.186,36.081-36.081V132.295C512,112.401,495.814,96.215,475.919,96.215z M200.447,68.152
			c0-10.421,8.478-18.899,18.899-18.899h73.307c10.421,0,18.899,8.478,18.899,18.899v28.063H200.447V68.152z M494.819,443.848
			c0,10.421-8.478,18.899-18.899,18.899H36.081c-10.421,0-18.899-8.478-18.899-18.899V132.295c0-10.421,8.478-18.899,18.899-18.899
			h439.839c10.421,0,18.899,8.478,18.899,18.899V443.848z"/>
	</g>
</g>
<g>
	<g>
		<path d="M309.498,172.07c-16.827-7.772-34.826-11.712-53.498-11.712c-70.421,0-127.714,57.292-127.714,127.714
			c0,28.185,9,54.909,26.027,77.281c1.691,2.221,4.252,3.388,6.843,3.388c1.813,0,3.642-0.573,5.197-1.755
			c3.775-2.874,4.506-8.263,1.633-12.039c-14.732-19.355-22.519-42.48-22.519-66.875c0-60.947,49.585-110.532,110.532-110.532
			c16.165,0,31.741,3.409,46.293,10.129c4.308,1.992,9.412,0.11,11.401-4.197C315.684,179.163,313.806,174.059,309.498,172.07z"/>
	</g>
</g>
<g>
	<g>
		<path d="M372.366,235.372c-1.96-4.319-7.051-6.234-11.372-4.275c-4.32,1.96-6.234,7.051-4.275,11.372
			c6.512,14.357,9.813,29.699,9.813,45.602c0,60.947-49.585,110.532-110.532,110.532c-23.99,0-46.804-7.553-65.978-21.843
			c-3.805-2.836-9.187-2.05-12.022,1.755c-2.835,3.804-2.049,9.187,1.755,12.022c22.164,16.517,48.529,25.247,76.246,25.247
			c70.421,0,127.714-57.292,127.714-127.714C383.714,269.704,379.896,251.974,372.366,235.372z"/>
	</g>
</g>
<g>
	<g>
		<path d="M352.254,204.129c-3.861-4.425-8.066-8.62-12.495-12.472c-3.581-3.113-9.006-2.734-12.12,0.846s-2.734,9.008,0.846,12.121
			c3.838,3.337,7.48,6.971,10.824,10.804c1.699,1.946,4.081,2.941,6.475,2.941c2.004,0,4.017-0.698,5.646-2.119
			C355.005,213.129,355.373,207.704,352.254,204.129z"/>
	</g>
</g>
<g>
	<g>
		<path d="M310.98,261.154h-28.063v-28.063c0-9.79-7.964-17.754-17.754-17.754h-18.327c-9.79,0-17.754,7.964-17.754,17.754v28.063
			H201.02c-9.79,0-17.754,7.964-17.754,17.754v18.327c0,9.79,7.964,17.754,17.754,17.754h28.063v28.063
			c0,9.79,7.964,17.754,17.754,17.754h18.327c9.79,0,17.754-7.964,17.754-17.754v-28.063h28.063c9.79,0,17.754-7.964,17.754-17.754
			v-18.327C328.734,269.118,320.77,261.154,310.98,261.154z M311.553,297.235c0,0.316-0.257,0.573-0.573,0.573h-36.653
			c-4.744,0-8.591,3.846-8.591,8.591v36.653c0,0.316-0.257,0.573-0.573,0.573h-18.327c-0.316,0-0.573-0.257-0.573-0.573v-36.653
			c0-4.744-3.846-8.591-8.591-8.591H201.02c-0.316,0-0.573-0.257-0.573-0.573v-18.327c0-0.316,0.257-0.573,0.573-0.573h36.653
			c4.744,0,8.591-3.846,8.591-8.591v-36.653c0-0.316,0.257-0.573,0.573-0.573h18.327c0.316,0,0.573,0.257,0.573,0.573v36.653
			c0,4.744,3.846,8.591,8.591,8.591h36.653c0.316,0,0.573,0.257,0.573,0.573V297.235z"/>
	</g>
</g>
</svg>